#tb 0: 1/48000
#media_type 0: audio
#codec_id 0: s337m_24
#sample_rate 0: 48000
#channel_layout_name 0: 7.1
0,          0,          0,     1961,    11766, 0x00000000
0,       1961,       1961,     3838,    23028, 0xf37fd70c
0,       5799,       5799,     5762,    22806, 0x4638b5f9
